# xmcd
#
# Track frame offsets: 
#        150
#        16348
#        37006
#        52647
#        75288
#        92017
#        109327
#        118366
#        131752
#        157551
#        174790
#
# Disc length: 2631 seconds
#
# Revision: 0
# Processed by: cddbd v1.5.2PL0 Copyright (c) Steve Scherf et al.
# Submitted via: ExactAudioCopy v0.99pb4
#
DISCID=770a450b
DTITLE=Sunday Wilde - What Man!??  Oh THAT man!!
DYEAR=2010
DGENRE=Gospel
TTITLE0=THAT Man drives me mad
TTITLE1=Sunday's Midnight Blues
TTITLE2=Show Me a Man
TTITLE3=Manning Street Sweet Talker
TTITLE4=My Baby's Dead
TTITLE5=Rest my weary heart
TTITLE6=Don't Bother Me
TTITLE7=Sorrowful Blues [Smith, Joins]
TTITLE8=Our Deal is Done
TTITLE9=I can't shake that guy
TTITLE10=Time to Say Goodbye
EXTD=
EXTT0=
EXTT1=
EXTT2=
EXTT3=
EXTT4=
EXTT5=
EXTT6=
EXTT7=
EXTT8=
EXTT9=
EXTT10=
PLAYORDER=
